<?xml version="1.0" ?><!DOCTYPE svg  PUBLIC '-//W3C//DTD SVG 1.1//EN'  'http://www.w3.org/Graphics/SVG/1.1/DTD/svg11.dtd'><svg enable-background="new 0 0 24 24" height="24px" id="Layer_1" version="1.1" viewBox="0 0 24 24" width="24px" xml:space="preserve" xmlns="http://www.w3.org/2000/svg" xmlns:xlink="http://www.w3.org/1999/xlink"><g id="icon"><path d="M20.4,2H3.6c-1.43,0,-2.6,1.17,-2.6,2.6v11.8c0,1.43,1.17,2.6,2.6,2.6h0.199l-0.732,3.651c0,0.274,0.301,0.44,0.533,0.295L10.302,19H20.4c1.43,0,2.6,-1.17,2.6,-2.6V4.6C23,3.17,21.83,2,20.4,2z" fill="#36BC9B"/><path d="M20.4,2h-2.841l-6.449,17H20.4c1.43,0,2.6,-1.17,2.6,-2.6V4.6C23,3.17,21.83,2,20.4,2z" fill="#231F20" opacity="0.1"/><path d="M9.415,10.479c0,0.607,-0.346,1.099,-1.099,1.099c-0.607,0,-1.099,-0.492,-1.099,-1.099S7.709,9.38,8.316,9.38S9.415,9.872,9.415,10.479zM11.98,9.38c-0.607,0,-1.099,0.492,-1.099,1.099s0.492,1.099,1.099,1.099c0.754,0,1.099,-0.492,1.099,-1.099S12.587,9.38,11.98,9.38zM15.643,9.38c-0.607,0,-1.099,0.492,-1.099,1.099s0.492,1.099,1.099,1.099c0.754,0,1.099,-0.492,1.099,-1.099S16.25,9.38,15.643,9.38zM6.751,15.5c0.171,0,0.311,-0.139,0.311,-0.311v-0.336c0,-0.171,-0.139,-0.311,-0.311,-0.311l-0.039,0c-0.577,-0.01,-0.823,-0.281,-0.823,-0.905c0,-0.223,0.029,-0.443,0.061,-0.677c0.008,-0.058,0.016,-0.117,0.022,-0.17c0.048,-0.303,0.099,-0.616,0.099,-0.954c0,-0.646,-0.221,-1.091,-0.658,-1.329c0.447,-0.238,0.668,-0.68,0.658,-1.319c0,-0.327,-0.045,-0.611,-0.094,-0.911l-0.004,-0.026c-0.007,-0.06,-0.015,-0.193,-0.023,-0.253c-0.031,-0.231,-0.06,-0.449,-0.06,-0.661c0,-0.624,0.238,-0.883,0.821,-0.893h0.041c0.171,0,0.311,-0.139,0.311,-0.311v-0.336c0,-0.171,-0.139,-0.311,-0.311,-0.311h-0.077c-1.215,0,-1.912,0.631,-1.912,1.73c0,0.325,0.045,0.726,0.093,1.073l0.005,0.038c0.042,0.286,0.095,0.642,0.095,0.978c-0.012,0.42,-0.136,0.708,-0.701,0.748c-0.156,0.011,-0.278,0.141,-0.278,0.296v0.327c0,0.154,0.122,0.284,0.277,0.296c0.486,0.036,0.702,0.269,0.702,0.755c0,0.236,-0.028,0.479,-0.058,0.737c-0.008,0.073,-0.017,0.146,-0.025,0.221c-0.076,0.413,-0.11,0.725,-0.11,1.012c0,1.162,0.675,1.803,1.899,1.803H6.751zM17.345,15.5c1.225,0,1.899,-0.64,1.899,-1.803c0,-0.287,-0.034,-0.6,-0.11,-1.012c-0.008,-0.074,-0.016,-0.148,-0.025,-0.221c-0.03,-0.258,-0.058,-0.502,-0.058,-0.737c0,-0.486,0.217,-0.719,0.702,-0.755c0.155,-0.012,0.277,-0.141,0.277,-0.296v-0.327c0,-0.155,-0.122,-0.285,-0.278,-0.296c-0.565,-0.04,-0.689,-0.328,-0.701,-0.748c0,-0.335,0.053,-0.692,0.095,-0.978l0.005,-0.038c0.048,-0.347,0.093,-0.747,0.093,-1.073c0,-1.1,-0.697,-1.73,-1.912,-1.73h-0.077c-0.171,0,-0.311,0.139,-0.311,0.311v0.336c0,0.171,0.139,0.311,0.311,0.311h0.041c0.582,0.01,0.821,0.269,0.821,0.893c0,0.211,-0.029,0.43,-0.06,0.661c-0.008,0.06,-0.016,0.193,-0.023,0.253l-0.004,0.026c-0.048,0.3,-0.094,0.584,-0.094,0.911c-0.01,0.638,0.211,1.081,0.658,1.319c-0.437,0.238,-0.658,0.683,-0.658,1.329c0,0.338,0.05,0.651,0.099,0.954c0.007,0.053,0.014,0.112,0.022,0.17c0.031,0.234,0.061,0.455,0.061,0.677c0,0.624,-0.246,0.895,-0.823,0.905l-0.039,0c-0.171,0,-0.311,0.139,-0.311,0.311v0.336c0,0.171,0.139,0.311,0.311,0.311H17.345z" fill="#FFFFFF" fill-rule="evenodd"/></g></svg>